<svg xmlns="http://www.w3.org/2000/svg" width="420" height="126"><path fill="#001489" d="M141.012 74.876c0-12.752-10.684-23.097-23.861-23.097-13.178 0-23.868 10.345-23.868 23.097 0 12.753 10.69 23.091 23.868 23.091 13.177 0 23.861-10.338 23.861-23.091"/><path fill="#001489" d="M231.793 63.294h-.025c-.939-.873-61.961-57.187-114.295-57.187C65.296 6.107 4.359 62.063 3.03 63.288H3l.018.019-.018.018h.03C4.359 64.538 65.296 120.5 117.472 120.5c30.481 0 63.898-19.093 86.685-35.219h.013a315.47 315.47 0 0 0 7.305-5.326l-.007-.007a308.245 308.245 0 0 0-13.717-12.322c-.759-.637-1.523-1.28-2.306-1.923l-.418-.346c-.82-.682-1.645-1.354-2.494-2.041h-.006c-20.719-16.703-49.052-34.667-75.061-34.667-26.009 0-54.384 17.97-75.14 34.667h-.006a254.797 254.797 0 0 0 14.925 11.115c4.55-3.834 9.392-7.613 14.44-11.115 14.487-10.059 30.583-17.825 45.775-17.825 15.186 0 31.269 7.766 45.739 17.825 6.953 4.832 13.517 10.192 19.445 15.483-19.633 13.386-43.197 25.208-65.172 25.208-30.402 0-63.904-22.636-85.812-40.703 21.908-18.074 55.41-40.71 85.812-40.71 30.396 0 63.849 22.636 85.709 40.71l-.013.012h.037a321.033 321.033 0 0 1 13.966 12.244c8.87-6.966 14.324-11.994 14.597-12.25h.025l-.013-.006m56.613 38.605l-7.102-20.894-7 20.894h14.102zm14.349 17.389h-8.438l-3.756-10.979h-18.406l-3.729 10.979h-8.229l17.113-46.925h8.375l17.07 46.925zm47.787-4.219a15.099 15.099 0 0 1-4.646 2.815 29.162 29.162 0 0 1-11.748 2.389c-6.708 0-12.218-2.135-16.531-6.4-4.457-4.402-6.682-10.292-6.682-17.662 0-7.615 2.334-13.703 7.007-18.269 4.461-4.407 10.165-6.61 17.113-6.604a25.31 25.31 0 0 1 10.977 2.328 13.197 13.197 0 0 1 4.228 2.667l-3.593 5.496a19.81 19.81 0 0 0-11.184-3.519 15.42 15.42 0 0 0-11.465 4.568c-3.14 3.189-4.709 7.433-4.714 12.733-.008 5.298 1.419 9.576 4.278 12.834 2.85 3.185 6.659 4.778 11.43 4.78 3.612 0 7.644-1.219 12.098-3.659l3.432 5.503zm48.173-19.697c0-5.134-1.313-9.297-3.938-12.491a12.598 12.598 0 0 0-10.208-4.817 11.721 11.721 0 0 0-9.847 4.963c-2.487 3.302-3.729 7.598-3.729 12.888 0 5.289 1.312 9.508 3.942 12.663a12.47 12.47 0 0 0 10.062 4.784 11.808 11.808 0 0 0 10.483-5.557c2.154-3.224 3.235-7.37 3.235-12.433m8.367.139c0 7.414-2.062 13.402-6.186 17.967-4.125 4.563-9.472 6.846-16.045 6.846-6.519 0-11.854-2.281-16-6.846-4.147-4.563-6.223-10.473-6.228-17.729 0-7.221 2.076-13.096 6.228-17.626 4.154-4.529 9.533-6.791 16.146-6.783 6.562 0 11.882 2.25 15.968 6.75 4.083 4.5 6.124 10.307 6.117 17.421M299.798 49.837a14.81 14.81 0 0 1-4.646 2.815 29.169 29.169 0 0 1-11.748 2.396c-6.708 0-12.219-2.136-16.532-6.409-4.453-4.41-6.683-10.293-6.683-17.653 0-7.647 2.346-13.747 7.031-18.292 4.457-4.41 10.156-6.615 17.096-6.615a25.44 25.44 0 0 1 10.98 2.318 13.134 13.134 0 0 1 4.219 2.679l-3.586 5.483a19.817 19.817 0 0 0-11.184-3.515 15.407 15.407 0 0 0-11.475 4.567c-3.144 3.195-4.711 7.443-4.707 12.743.007 5.298 1.434 9.576 4.277 12.833 2.854 3.194 6.663 4.789 11.432 4.783 3.613 0 7.646-1.217 12.099-3.654l3.427 5.521zm40.284-13.151l-7.111-20.894-7.035 20.894h14.146zm14.349 17.369h-8.444l-3.724-10.969h-18.431l-3.73 10.969h-8.229l17.114-46.923h8.367l17.077 46.923zm44.347-23.915c0-5.134-1.312-9.294-3.938-12.484a12.557 12.557 0 0 0-10.172-4.826 11.741 11.741 0 0 0-9.85 4.964c-2.487 3.301-3.73 7.605-3.73 12.911 0 5.306 1.312 9.526 3.938 12.663a12.482 12.482 0 0 0 10.062 4.783 11.8 11.8 0 0 0 10.48-5.561c2.14-3.236 3.21-7.385 3.21-12.45m8.377.138c0 7.414-2.067 13.403-6.195 17.967-4.129 4.564-9.476 6.845-16.033 6.845-6.521 0-11.856-2.28-16.011-6.845-4.151-4.564-6.225-10.473-6.22-17.727 0-7.223 2.071-13.098 6.22-17.627 4.148-4.528 9.529-6.799 16.146-6.81 6.582 0 11.907 2.25 15.975 6.75 4.067 4.501 6.108 10.315 6.118 17.447"/></svg>