<svg xmlns="http://www.w3.org/2000/svg" width="1008" height="126"><path fill="#001489" d="M141.012 74.876c0-12.752-10.684-23.097-23.861-23.097-13.178 0-23.868 10.345-23.868 23.097 0 12.753 10.69 23.091 23.868 23.091 13.177 0 23.861-10.338 23.861-23.091"/><path fill="#001489" d="M231.793 63.294h-.025c-.94-.873-61.962-57.187-114.296-57.187C65.296 6.107 4.359 62.063 3.03 63.288H3l.018.019-.018.018h.03C4.359 64.538 65.296 120.5 117.472 120.5c30.481 0 63.898-19.093 86.685-35.219h.013a313.203 313.203 0 0 0 7.304-5.326l-.006-.007a308.245 308.245 0 0 0-13.717-12.322c-.759-.637-1.523-1.28-2.306-1.923l-.418-.346c-.82-.682-1.645-1.354-2.494-2.041h-.006c-20.719-16.703-49.052-34.667-75.061-34.667-26.009 0-54.384 17.97-75.14 34.667h-.006a254.797 254.797 0 0 0 14.925 11.115c4.55-3.834 9.392-7.613 14.44-11.115 14.487-10.059 30.583-17.825 45.775-17.825 15.186 0 31.269 7.766 45.739 17.825 6.953 4.832 13.517 10.192 19.445 15.483-19.633 13.386-43.197 25.208-65.172 25.208-30.402 0-63.904-22.636-85.812-40.703 21.908-18.074 55.41-40.71 85.812-40.71 30.396 0 63.849 22.636 85.709 40.71l-.013.012h.037a321.033 321.033 0 0 1 13.966 12.244c8.87-6.966 14.324-11.994 14.597-12.25h.025l-.013-.006m45.897 37.697h-3.434l-1.516-4.459h-7.493l-1.517 4.459h-3.343l6.947-19.075h3.403m1.117 12.013l-2.888-8.494-2.858 8.494h5.746zm22.684 1.602c0 1.753-.582 3.18-1.759 4.259-1.171 1.086-2.773 1.632-4.787 1.632a9.83 9.83 0 0 1-4.35-1c-.855-.42-1.45-.802-1.772-1.146l1.487-2.281c1.62 1.068 3.106 1.597 4.459 1.597 1.068 0 1.899-.248 2.488-.76.594-.504.891-1.183.891-2.037 0-.845-.43-1.549-1.292-2.123-.261-.164-1.153-.59-2.657-1.258-1.414-.625-2.391-1.171-2.943-1.626-1.243-1.03-1.862-2.33-1.862-3.889 0-1.603.582-2.906 1.747-3.907 1.159-1.001 2.669-1.498 4.52-1.498 1.486 0 2.851.321 4.113.971.668.34 1.183.697 1.547 1.057l-1.547 2.117c-1.201-.951-2.493-1.433-3.889-1.433-.952 0-1.735.226-2.341.675-.613.447-.917 1.035-.917 1.76 0 .668.273 1.213.826 1.631.382.285 1.28.734 2.693 1.342 1.735.746 2.961 1.443 3.683 2.093 1.11 1.002 1.662 2.283 1.662 3.824m17.898 0c0 1.753-.582 3.18-1.759 4.259-1.171 1.086-2.773 1.632-4.787 1.632a9.83 9.83 0 0 1-4.35-1c-.856-.42-1.45-.802-1.772-1.146l1.486-2.281c1.62 1.068 3.107 1.597 4.46 1.597 1.065 0 1.897-.248 2.486-.76.596-.504.893-1.183.893-2.037 0-.845-.431-1.549-1.292-2.123-.267-.164-1.153-.59-2.658-1.258-1.407-.625-2.39-1.171-2.942-1.626-1.244-1.03-1.863-2.33-1.863-3.889 0-1.603.583-2.906 1.748-3.907 1.158-1.001 2.669-1.498 4.52-1.498 1.486 0 2.857.321 4.113.971.667.34 1.183.697 1.547 1.057l-1.547 2.117c-1.201-.951-2.494-1.433-3.889-1.433-.952 0-1.735.226-2.342.675-.613.447-.916 1.035-.916 1.76 0 .668.273 1.213.825 1.631.382.285 1.28.734 2.694 1.342 1.734.746 2.961 1.443 3.683 2.093 1.11 1.002 1.662 2.283 1.662 3.824m23.425-4.199c0 3.01-.838 5.438-2.512 7.287-1.681 1.85-3.853 2.778-6.521 2.778-2.651 0-4.823-.929-6.512-2.778-1.687-1.852-2.528-4.247-2.528-7.208 0-2.93.843-5.321 2.528-7.159 1.688-1.838 3.877-2.76 6.564-2.76 2.67 0 4.836.916 6.492 2.742 1.664 1.832 2.489 4.192 2.489 7.098m-3.404-.06c0-2.075-.534-3.769-1.604-5.079-1.065-1.305-2.444-1.959-4.143-1.959-1.663 0-2.997.673-4.005 2.02-1.015 1.342-1.518 3.096-1.518 5.248 0 2.131.534 3.848 1.603 5.151 1.066 1.292 2.433 1.94 4.089 1.94 1.851 0 3.271-.752 4.266-2.265.875-1.313 1.312-2.994 1.312-5.056m24.711 8.008c-.348.358-.973.739-1.889 1.142a11.804 11.804 0 0 1-4.779.978c-2.726 0-4.963-.867-6.716-2.604-1.814-1.789-2.72-4.187-2.72-7.178 0-3.111.953-5.587 2.864-7.438 1.808-1.789 4.125-2.688 6.946-2.688 1.639 0 3.131.315 4.466.94.831.382 1.407.746 1.711 1.092l-1.456 2.227c-1.432-.953-2.949-1.426-4.551-1.426-1.888 0-3.44.619-4.659 1.855-1.28 1.3-1.917 3.021-1.917 5.176 0 2.179.576 3.914 1.729 5.205 1.151 1.299 2.704 1.939 4.646 1.939 1.468 0 3.112-.488 4.92-1.484m7.241-15.1h3.312v19.075h-3.312zm26.167 19.075h-3.436l-1.516-4.459h-7.493l-1.517 4.459h-3.344l6.946-19.075h3.404m1.12 12.013l-2.89-8.494-2.856 8.494h5.746zm21.968-9.325h-5.405v16.387h-3.319V84.614h-5.406v-2.688h14.13m5.97 0h3.319v19.075h-3.319zm27.939 9.416c0 3.01-.831 5.438-2.512 7.287-1.682 1.85-3.854 2.778-6.522 2.778-2.651 0-4.812-.929-6.504-2.778-1.688-1.852-2.536-4.247-2.536-7.208 0-2.93.85-5.321 2.536-7.159 1.692-1.838 3.871-2.76 6.563-2.76 2.67 0 4.835.916 6.492 2.742 1.658 1.832 2.483 4.192 2.483 7.098m-3.398-.06c0-2.075-.533-3.769-1.601-5.079-1.068-1.305-2.451-1.959-4.15-1.959-1.656 0-2.991.673-4.004 2.02-1.007 1.342-1.511 3.096-1.511 5.248 0 2.131.534 3.848 1.602 5.151 1.067 1.292 2.429 1.94 4.089 1.94 1.846 0 3.271-.752 4.261-2.265.878-1.313 1.314-2.994 1.314-5.056m24.426 9.719h-3.003L448.7 87.047l.085 13.954h-3.028V81.926h3.113l8.409 13.929-.085-13.929h3.033m34.388 17.364c-.348.358-.979.739-1.895 1.142a11.824 11.824 0 0 1-4.773.978c-2.726 0-4.971-.867-6.717-2.604-1.813-1.789-2.725-4.187-2.725-7.178 0-3.111.959-5.587 2.864-7.438 1.808-1.789 4.125-2.688 6.946-2.688 1.644 0 3.131.315 4.466.94.837.382 1.407.746 1.717 1.092l-1.463 2.227c-1.425-.953-2.942-1.426-4.544-1.426-1.887 0-3.446.619-4.665 1.855-1.274 1.3-1.917 3.021-1.917 5.176 0 2.179.576 3.914 1.734 5.205 1.151 1.299 2.699 1.939 4.646 1.939 1.462 0 3.105-.488 4.92-1.484m23.562 3.975h-3.43l-1.517-4.459h-7.493l-1.516 4.459h-3.345l6.946-19.075h3.404m1.121 12.013l-2.891-8.494-2.854 8.494h5.745zm25.852 7.062h-2.997l-8.525-13.954.085 13.954h-3.033V81.926h3.118l8.409 13.929-.085-13.929h3.028m22.853 19.075h-3.436l-1.517-4.459h-7.492l-1.519 4.459h-3.35l6.953-19.075h3.403m1.123 12.013l-2.888-8.494-2.864 8.494h5.752zm27.623-2.632c0 2.883-.886 5.204-2.655 6.979-1.165 1.165-2.604 1.935-4.319 2.316-1.146.268-2.828.399-5.061.399h-4.204V81.926h4.89c2.154 0 3.738.116 4.751.348 1.541.341 2.857 1.057 3.943 2.143 1.769 1.774 2.655 4.067 2.655 6.89m-3.319-.086c0-2.117-.607-3.785-1.826-5.005-.746-.741-1.65-1.226-2.718-1.457-.725-.149-1.905-.229-3.543-.229h-1.52v13.813h2.257c2.557 0 4.438-.644 5.639-1.918 1.141-1.218 1.711-2.952 1.711-5.204m9.871-9.295h3.316v19.075h-3.316zm21.932 19.075h-11.29V81.926h11.066v2.688h-7.809v5.204h7.317v2.634h-7.317v5.807h8.033m21.022 2.742h-3.002l-8.525-13.954.091 13.954h-3.033V81.926h3.112l8.409 13.929-.079-13.929h3.027m22.078 19.075h-3.003l-8.524-13.954.091 13.954h-3.034V81.926h3.113l8.409 13.929-.079-13.929h3.027m18.905 19.075h-11.297V81.926h11.066v2.688h-7.808v5.204h7.323v2.634h-7.323v5.807h8.039m34.527-6.952c0 2.883-.886 5.204-2.657 6.979-1.165 1.165-2.603 1.935-4.32 2.316-1.146.268-2.833.399-5.06.399h-4.21V81.926h4.896c2.154 0 3.737.116 4.744.348 1.547.341 2.864 1.057 3.95 2.143 1.771 1.774 2.657 4.067 2.657 6.89m-3.318-.086c0-2.117-.604-3.785-1.827-5.005-.746-.741-1.647-1.226-2.718-1.457-.722-.149-1.911-.229-3.549-.229h-1.519v13.813h2.265c2.555 0 4.429-.644 5.631-1.918 1.146-1.218 1.717-2.952 1.717-5.204m21.161 9.78h-11.29V81.926h11.066v2.688h-7.808v5.204h7.322v2.634h-7.322v5.807h8.032m18.135-2.718c0 1.753-.589 3.18-1.76 4.259-1.171 1.086-2.766 1.632-4.787 1.632a9.875 9.875 0 0 1-4.35-1c-.855-.42-1.444-.802-1.771-1.146l1.486-2.281c1.62 1.068 3.112 1.597 4.465 1.597 1.062 0 1.895-.248 2.482-.76.588-.504.892-1.183.892-2.037 0-.845-.437-1.549-1.293-2.123-.267-.164-1.151-.59-2.657-1.258-1.414-.625-2.39-1.171-2.947-1.626-1.236-1.03-1.855-2.33-1.855-3.889 0-1.603.582-2.906 1.747-3.907 1.159-1.001 2.67-1.498 4.514-1.498 1.493 0 2.858.321 4.12.971.667.34 1.185.697 1.541 1.057l-1.541 2.117c-1.202-.951-2.494-1.433-3.889-1.433-.953 0-1.736.226-2.342.675-.613.447-.916 1.035-.916 1.76 0 .668.276 1.213.822 1.631.391.285 1.28.734 2.693 1.342 1.736.746 2.961 1.443 3.684 2.093 1.109 1.002 1.662 2.283 1.662 3.824m33.325-4.199c0 3.01-.831 5.438-2.511 7.287-1.684 1.85-3.854 2.778-6.522 2.778-2.649 0-4.814-.929-6.51-2.778-1.681-1.852-2.53-4.247-2.53-7.208 0-2.93.852-5.321 2.53-7.159 1.693-1.838 3.877-2.76 6.57-2.76 2.67 0 4.83.916 6.483 2.742 1.665 1.832 2.49 4.192 2.49 7.098m-3.403-.06c0-2.075-.531-3.769-1.602-5.079-1.068-1.305-2.445-1.959-4.146-1.959-1.653 0-2.988.673-4.004 2.02-1.007 1.342-1.517 3.096-1.517 5.248 0 2.131.534 3.848 1.602 5.151 1.068 1.292 2.436 1.94 4.098 1.94 1.845 0 3.264-.752 4.259-2.265.873-1.313 1.31-2.994 1.31-5.056m22.769-3.636c0 1.761-.546 3.181-1.632 4.266-.804.801-1.783 1.329-2.948 1.572-.704.149-1.887.229-3.543.229h-1.432v7.293h-3.261V81.932h5.093c1.541 0 2.697.086 3.463.256 1.104.23 2.003.691 2.688 1.377 1.051 1.049 1.572 2.408 1.572 4.081m-3.349.062c0-1.007-.297-1.808-.885-2.401-.516-.517-1.687-.771-3.519-.771h-1.802v6.516h1.347c2.081 0 3.403-.291 3.992-.866.576-.584.867-1.411.867-2.478m22.509-3.094h-5.4v16.387h-3.318V84.614h-5.413v-2.688h14.131m22.017 9.416c0 3.01-.837 5.438-2.512 7.287-1.683 1.85-3.854 2.778-6.522 2.778-2.648 0-4.814-.929-6.503-2.778-1.69-1.852-2.536-4.247-2.536-7.208 0-2.93.846-5.321 2.536-7.159 1.688-1.838 3.87-2.76 6.561-2.76 2.669 0 4.841.916 6.498 2.742 1.653 1.832 2.478 4.192 2.478 7.098m-3.398-.06c0-2.075-.533-3.769-1.604-5.079-1.068-1.305-2.451-1.959-4.15-1.959-1.653 0-2.988.673-4.004 2.02-1.007 1.342-1.511 3.096-1.511 5.248 0 2.131.534 3.848 1.604 5.151 1.065 1.292 2.427 1.94 4.082 1.94 1.851 0 3.274-.752 4.266-2.265.875-1.313 1.317-2.994 1.317-5.056m30.827 9.719h-3.173l-1.317-14.415-4.89 14.415h-2.718l-5.029-14.415-1.171 14.415h-2.948l1.856-19.075h3.604l5.211 14.701 4.998-14.701h3.605m20.216 19.081h-11.291V81.932h11.066v2.688h-7.811v5.205h7.323v2.634h-7.323v5.807h8.033m-1.854-20.252l-6.438 2.571-.965-1.771 6.17-3.319 1.233 2.519zm21.192 6.6h-5.406v16.387h-3.312V84.614h-5.412v-2.688h14.13m19.73 19.075h-3.489l-2.287-5.09c-.57-1.28-1.107-2.081-1.626-2.403-.419-.242-1.183-.369-2.287-.369h-.801v7.862h-3.264V81.926h4.581c1.674 0 2.826.057 3.458.17 1.14.213 2.073.682 2.803 1.402 1.024 1.031 1.541 2.311 1.541 3.834 0 1.292-.383 2.378-1.142 3.246-.766.867-1.798 1.383-3.096 1.559.596.057 1.159.354 1.693.887.398.399.938 1.365 1.626 2.89m-2.37-8.497c0-.897-.236-1.584-.716-2.063-.382-.375-.897-.61-1.541-.709-.327-.061-1.001-.092-2.032-.092h-1.541v6.008h1.256c1.832 0 3.07-.32 3.72-.965.569-.576.854-1.299.854-2.179m10.496-5.491h3.319v19.075h-3.319zm22.224 13.615c0 1.753-.589 3.18-1.766 4.259-1.165 1.086-2.766 1.632-4.787 1.632a9.833 9.833 0 0 1-4.344-1c-.861-.42-1.45-.802-1.777-1.146l1.492-2.281c1.62 1.068 3.105 1.597 4.46 1.597 1.067 0 1.897-.248 2.487-.76.595-.504.886-1.183.886-2.037 0-.845-.425-1.549-1.286-2.123-.267-.164-1.153-.59-2.658-1.258-1.413-.625-2.39-1.171-2.947-1.626-1.236-1.03-1.855-2.33-1.855-3.889 0-1.603.583-2.906 1.747-3.907 1.159-1.001 2.67-1.498 4.514-1.498 1.493 0 2.864.321 4.12.971.667.34 1.184.697 1.547 1.057l-1.547 2.117c-1.201-.951-2.494-1.433-3.889-1.433-.953 0-1.735.226-2.342.675-.613.447-.916 1.035-.916 1.76 0 .668.271 1.213.822 1.631.383.285 1.28.734 2.688 1.342 1.733.746 2.966 1.443 3.688 2.093 1.111 1.002 1.663 2.283 1.663 3.824m19.499-10.927h-5.4v16.387h-3.318V84.614h-5.406v-2.688h14.124m17.273 19.075h-11.291V81.926h11.066v2.688h-7.808v5.204h7.323v2.634h-7.323v5.807h8.033M1004 95.541c0 1.753-.58 3.18-1.759 4.259-1.171 1.086-2.77 1.632-4.787 1.632a9.873 9.873 0 0 1-4.351-1c-.855-.42-1.443-.802-1.771-1.146l1.487-2.281c1.618 1.068 3.109 1.597 4.465 1.597 1.062 0 1.893-.248 2.479-.76.598-.504.895-1.183.895-2.037 0-.845-.438-1.549-1.292-2.123-.27-.164-1.153-.59-2.657-1.258-1.414-.625-2.391-1.171-2.949-1.626-1.235-1.03-1.854-2.33-1.854-3.889 0-1.603.582-2.906 1.747-3.907 1.158-1.001 2.669-1.498 4.514-1.498 1.492 0 2.857.321 4.119.971.668.34 1.188.697 1.537 1.057l-1.537 2.117c-1.201-.951-2.493-1.433-3.891-1.433-.95 0-1.733.226-2.343.675-.609.447-.916 1.035-.916 1.76 0 .668.279 1.213.825 1.631.383.285 1.28.734 2.694 1.342 1.732.746 2.961 1.443 3.683 2.093C1003.45 92.719 1004 94 1004 95.541M276.525 42.97c-.346.364-.971.746-1.887 1.141a11.848 11.848 0 0 1-4.781.977c-2.724 0-4.963-.868-6.716-2.603-1.814-1.79-2.718-4.186-2.718-7.177 0-3.107.952-5.588 2.857-7.439 1.813-1.789 4.126-2.687 6.953-2.687 1.638 0 3.125.315 4.459.946.838.376 1.414.74 1.717 1.086l-1.462 2.227c-1.426-.953-2.942-1.426-4.544-1.426-1.887 0-3.44.619-4.666 1.856-1.274 1.299-1.911 3.022-1.911 5.176 0 2.178.577 3.913 1.729 5.205 1.153 1.298 2.706 1.948 4.648 1.948 1.468 0 3.112-.498 4.92-1.487m22.988 3.968h-3.428l-1.517-4.459h-7.492l-1.517 4.459h-3.343l6.947-19.075h3.403m1.117 12.013l-2.888-8.494-2.858 8.494h5.746zm25.851 7.068h-3.003l-8.524-13.954.085 13.954h-3.028V25.612h3.119l8.409 13.93-.091-13.93h3.033m22.854 19.069h-3.436l-1.516-4.459h-7.493l-1.517 4.459h-3.345l6.947-19.075h3.404m1.12 12.013l-2.89-8.494-2.856 8.494h5.746zm27.629-2.627c0 2.876-.894 5.205-2.657 6.977-1.171 1.165-2.604 1.935-4.32 2.318-1.146.267-2.833.4-5.064.4h-4.204V25.612h4.89c2.16 0 3.737.116 4.75.346 1.547.34 2.858 1.056 3.95 2.142 1.763 1.771 2.655 4.071 2.655 6.892m-3.319-.085c0-2.117-.612-3.786-1.832-5.005a5.362 5.362 0 0 0-2.712-1.456c-.729-.152-1.911-.231-3.549-.231h-1.519V42.03h2.265c2.548 0 4.429-.643 5.63-1.917 1.141-1.22 1.717-2.955 1.717-5.206m9.871-9.295h3.312v19.075h-3.312zm26.161 19.069h-3.436l-1.51-4.459h-7.493l-1.517 4.459h-3.35l6.952-19.075h3.404m1.114 12.013l-2.882-8.494-2.864 8.494h5.746zm25.857 7.068h-3.003l-8.518-13.954.079 13.954h-3.027V25.612h3.112l8.409 13.93-.085-13.93h3.033m34.588 19.069h-3.434l-1.516-4.459h-7.493l-1.511 4.459h-3.351l6.953-19.075h3.398m1.118 12.013l-2.888-8.494-2.864 8.494h5.752zm22.964 1.608c0 1.753-.589 3.179-1.76 4.259-1.171 1.086-2.767 1.632-4.787 1.632a9.818 9.818 0 0 1-4.344-1.001c-.861-.419-1.45-.801-1.777-1.147l1.486-2.287c1.626 1.068 3.112 1.608 4.459 1.608 1.068 0 1.899-.255 2.494-.765.588-.503.886-1.183.886-2.044 0-.838-.431-1.542-1.287-2.118-.267-.164-1.156-.588-2.655-1.256-1.414-.625-2.396-1.171-2.949-1.626-1.243-1.031-1.856-2.329-1.856-3.889 0-1.601.576-2.906 1.741-3.907 1.159-1.001 2.67-1.498 4.521-1.498 1.484 0 2.856.321 4.112.97.667.34 1.185.698 1.547 1.056l-1.547 2.117c-1.202-.952-2.493-1.431-3.889-1.431-.953 0-1.736.224-2.342.673-.613.449-.916 1.038-.916 1.76 0 .667.278 1.213.831 1.625.382.292 1.278.741 2.687 1.347 1.736.747 2.961 1.444 3.685 2.093 1.107 1.008 1.66 2.288 1.66 3.829m17.903 0c0 1.753-.588 3.179-1.759 4.259-1.171 1.086-2.768 1.632-4.787 1.632a9.856 9.856 0 0 1-4.35-1.001c-.856-.419-1.444-.801-1.772-1.147l1.487-2.287c1.62 1.068 3.111 1.608 4.459 1.608 1.066 0 1.897-.255 2.493-.765.589-.503.886-1.183.886-2.044 0-.838-.43-1.542-1.286-2.118-.267-.164-1.159-.588-2.663-1.256-1.408-.625-2.391-1.171-2.941-1.626-1.244-1.031-1.862-2.329-1.862-3.889 0-1.601.582-2.906 1.747-3.907 1.159-1.001 2.669-1.498 4.52-1.498 1.486 0 2.857.321 4.113.97.668.34 1.183.698 1.547 1.056l-1.547 2.117c-1.201-.952-2.493-1.431-3.889-1.431-.952 0-1.735.224-2.344.673-.61.449-.916 1.038-.916 1.76 0 .667.279 1.213.831 1.625.385.292 1.275.741 2.688 1.347 1.734.747 2.961 1.444 3.683 2.093 1.11 1.008 1.662 2.288 1.662 3.829m23.71-4.205c0 3.01-.837 5.442-2.518 7.287-1.674 1.85-3.854 2.779-6.522 2.779-2.645 0-4.815-.929-6.504-2.779-1.686-1.845-2.53-4.253-2.53-7.208 0-2.93.846-5.321 2.53-7.159 1.688-1.838 3.877-2.76 6.565-2.76 2.669 0 4.835.916 6.49 2.742 1.658 1.832 2.489 4.192 2.489 7.098m-3.404-.06c0-2.075-.531-3.768-1.601-5.078-1.068-1.305-2.451-1.96-4.144-1.96-1.656 0-2.991.673-4.004 2.014-1.015 1.347-1.519 3.1-1.519 5.254 0 2.136.534 3.847 1.603 5.151 1.066 1.292 2.427 1.942 4.09 1.942 1.85 0 3.264-.759 4.259-2.264.873-1.316 1.316-2.997 1.316-5.059m24.997 8.008c-.346.364-.977.746-1.887 1.141a11.837 11.837 0 0 1-4.772.977c-2.727 0-4.972-.868-6.725-2.603-1.812-1.79-2.718-4.186-2.718-7.177 0-3.107.952-5.588 2.863-7.439 1.808-1.789 4.12-2.687 6.944-2.687 1.641 0 3.125.315 4.459.946.839.376 1.414.74 1.72 1.086l-1.456 2.227c-1.435-.953-2.948-1.426-4.553-1.426-1.887 0-3.438.619-4.657 1.856-1.274 1.299-1.917 3.022-1.917 5.176 0 2.178.574 3.913 1.729 5.205 1.153 1.298 2.706 1.948 4.648 1.948 1.468 0 3.104-.498 4.92-1.487m7.238-15.101h3.312v19.075h-3.312zm26.161 19.069h-3.428l-1.517-4.459h-7.492l-1.519 4.459h-3.344l6.953-19.075h3.397m1.12 12.013l-2.888-8.494-2.864 8.494h5.752zm21.962-9.319h-5.4v16.387h-3.318V28.3h-5.412v-2.688h14.13m5.982 0h3.313v19.075h-3.313zm27.933 9.41c0 3.01-.838 5.442-2.518 7.287-1.675 1.85-3.847 2.779-6.516 2.779-2.652 0-4.817-.929-6.513-2.779-1.681-1.845-2.527-4.253-2.527-7.208 0-2.93.849-5.321 2.527-7.159 1.693-1.838 3.88-2.76 6.564-2.76 2.67 0 4.842.916 6.498 2.742 1.659 1.832 2.485 4.192 2.485 7.098m-3.398-.06c0-2.075-.534-3.768-1.604-5.078-1.065-1.305-2.455-1.96-4.147-1.96-1.656 0-2.991.673-4.004 2.014-1.007 1.347-1.511 3.1-1.511 5.254 0 2.136.531 3.847 1.602 5.151 1.068 1.292 2.427 1.942 4.083 1.942 1.851 0 3.27-.759 4.265-2.264.873-1.316 1.316-2.997 1.316-5.059m24.42 9.725h-3.004l-8.518-13.954.085 13.954h-3.033V25.612h3.112l8.409 13.93-.079-13.93h3.028m35.328 9.41c0 3.01-.832 5.442-2.512 7.287-1.684 1.85-3.854 2.779-6.522 2.779-2.651 0-4.816-.929-6.504-2.779-1.693-1.845-2.536-4.253-2.536-7.208 0-2.93.843-5.321 2.536-7.159 1.688-1.838 3.871-2.76 6.559-2.76 2.669 0 4.844.916 6.497 2.742 1.657 1.832 2.482 4.192 2.482 7.098m-3.398-.06c0-2.075-.532-3.768-1.601-5.078-1.068-1.305-2.452-1.96-4.15-1.96-1.654 0-2.988.673-4.005 2.014-1.007 1.347-1.51 3.1-1.51 5.254 0 2.136.528 3.847 1.601 5.151 1.068 1.292 2.43 1.942 4.084 1.942 1.853 0 3.271-.759 4.268-2.264.87-1.316 1.313-2.997 1.313-5.059m20.822-6.662h-7.584v5.206h7.147v2.657h-7.147v8.524h-3.282V25.612h10.866m32.665 9.41c0 3.01-.837 5.442-2.518 7.287-1.677 1.85-3.854 2.779-6.522 2.779-2.645 0-4.811-.929-6.504-2.779-1.68-1.845-2.53-4.253-2.53-7.208 0-2.93.853-5.321 2.53-7.159 1.693-1.838 3.877-2.76 6.565-2.76 2.669 0 4.835.916 6.488 2.742 1.666 1.832 2.491 4.192 2.491 7.098m-3.404-.06c0-2.075-.533-3.768-1.601-5.078-1.068-1.305-2.452-1.96-4.146-1.96-1.659 0-2.997.673-4.004 2.014-1.014 1.347-1.517 3.1-1.517 5.254 0 2.136.534 3.847 1.602 5.151 1.067 1.292 2.428 1.942 4.09 1.942 1.852 0 3.271-.759 4.267-2.264.872-1.316 1.309-2.997 1.309-5.059m22.77-3.635c0 1.754-.546 3.18-1.632 4.266-.804.8-1.778 1.328-2.949 1.571-.698.152-1.887.231-3.543.231h-1.426v7.292h-3.267V25.612h5.09c1.542 0 2.7.085 3.459.255 1.11.231 2.003.692 2.688 1.377 1.052 1.05 1.58 2.409 1.58 4.083m-3.348.061c0-1.007-.299-1.808-.887-2.402-.51-.516-1.69-.771-3.519-.771h-1.796v6.516h1.341c2.075 0 3.403-.291 3.992-.868.578-.582.869-1.407.869-2.475m22.507-3.088h-5.405v16.387h-3.319V28.3h-5.407v-2.688h14.131m22.017 9.41c0 3.01-.831 5.442-2.511 7.287-1.684 1.85-3.854 2.779-6.522 2.779-2.649 0-4.814-.929-6.504-2.779-1.69-1.845-2.536-4.253-2.536-7.208 0-2.93.846-5.321 2.536-7.159 1.688-1.838 3.871-2.76 6.564-2.76 2.67 0 4.83.916 6.483 2.742 1.665 1.832 2.49 4.192 2.49 7.098m-3.403-.06c0-2.075-.531-3.768-1.602-5.078-1.068-1.305-2.445-1.96-4.146-1.96-1.653 0-2.988.673-4.004 2.014-1.007 1.347-1.517 3.1-1.517 5.254 0 2.136.534 3.847 1.602 5.151 1.068 1.292 2.436 1.942 4.098 1.942 1.845 0 3.264-.759 4.259-2.264.873-1.316 1.31-2.997 1.31-5.059m30.832 9.725h-3.173L802.4 30.272l-4.89 14.415h-2.718l-5.03-14.415-1.177 14.415h-2.942l1.856-19.075h3.605l5.205 14.695 5.005-14.695h3.604m20.215 19.075h-11.291V25.612h11.066V28.3H817.1v5.206h7.323v2.633H817.1v5.806h8.033M844.754 28.3h-5.4v16.387h-3.319V28.3h-5.412v-2.688h14.131m19.735 19.075h-3.494l-2.287-5.09c-.571-1.28-1.111-2.081-1.626-2.403-.419-.242-1.183-.37-2.294-.37h-.795v7.863h-3.265V25.612h4.58c1.67 0 2.826.061 3.457.17 1.144.213 2.075.68 2.806 1.402 1.022 1.031 1.541 2.311 1.541 3.834 0 1.292-.382 2.378-1.143 3.246-.765.868-1.796 1.383-3.089 1.559.589.061 1.147.352 1.688.886.394.4.938 1.365 1.626 2.888m-2.37-8.494c0-.892-.237-1.583-.717-2.063-.384-.376-.894-.612-1.541-.71-.327-.054-1-.091-2.031-.091h-1.542v6.007h1.25c1.839 0 3.067-.322 3.719-.965.577-.576.862-1.304.862-2.178m10.502-5.491h3.312v19.075h-3.312zm22.217 13.615c0 1.753-.588 3.179-1.759 4.259-1.171 1.086-2.773 1.632-4.793 1.632a9.81 9.81 0 0 1-4.345-1.001c-.861-.419-1.449-.801-1.777-1.147l1.493-2.287c1.62 1.068 3.104 1.608 4.459 1.608 1.065 0 1.893-.255 2.484-.765.591-.503.889-1.183.889-2.044 0-.838-.433-1.542-1.286-2.118-.27-.164-1.153-.588-2.657-1.256-1.414-.625-2.396-1.171-2.949-1.626-1.235-1.031-1.854-2.329-1.854-3.889 0-1.601.582-2.906 1.741-3.907 1.164-1.001 2.669-1.498 4.52-1.498 1.486 0 2.857.321 4.119.97.668.34 1.183.698 1.541 1.056l-1.541 2.117c-1.201-.952-2.499-1.431-3.889-1.431-.959 0-1.735.224-2.351.673-.61.449-.916 1.038-.916 1.76 0 .667.279 1.213.831 1.625.383.292 1.281.741 2.688 1.347 1.732.747 2.967 1.444 3.688 2.093 1.106 1.008 1.664 2.288 1.664 3.829m19.5-10.927h-5.4v16.387h-3.319V28.3h-5.405v-2.688h14.124m17.564 13.615c0 1.753-.592 3.179-1.763 4.259-1.177 1.086-2.766 1.632-4.793 1.632a9.836 9.836 0 0 1-4.344-1.001c-.861-.419-1.45-.801-1.771-1.147l1.484-2.287c1.614 1.068 3.106 1.608 4.465 1.608 1.062 0 1.889-.255 2.482-.765.588-.503.886-1.183.886-2.044 0-.838-.431-1.542-1.287-2.118-.267-.164-1.149-.588-2.655-1.256-1.414-.625-2.396-1.171-2.948-1.626-1.237-1.031-1.856-2.329-1.856-3.889 0-1.601.582-2.906 1.741-3.907 1.165-1.001 2.67-1.498 4.521-1.498 1.485 0 2.857.321 4.119.97.667.34 1.186.698 1.541 1.056l-1.541 2.117c-1.201-.952-2.5-1.431-3.889-1.431-.959 0-1.736.224-2.348.673-.613.449-.91 1.038-.91 1.76 0 .667.271 1.213.825 1.625.388.292 1.277.741 2.687 1.347 1.736.747 2.967 1.444 3.689 2.093 1.106 1.008 1.665 2.288 1.665 3.829"/></svg>